<svg id="Capa_1" enable-background="new 0 0 512 512" height="512" viewBox="0 0 512 512" width="512" xmlns="http://www.w3.org/2000/svg">
<g>
<path fill="#fff" d="m240 360.552h30v29.999h-30z"/>
<path fill="#fff" d="m105 225.851h30v30h-30z"/>
<path fill="#fff" d="m105 360.552h30v29.999h-30z"/>
<path fill="#fff" d="m240 225.851h30v30h-30z"/>
<path fill="#fff" d="m375 225.851h30v30h-30z"/>
<path fill="#fff" d="m406 16h-30v105.084h30c0-31.674 0-73.316 0-105.084z"/>
<path fill="#fff" d="m436 76v75.084h-90v-75.084h-180v75.084h-90c0-24.273 0-51.721 0-75.084h-76v420h512v-420zm-271 344.551h-90v-89.999h90zm0-134.7h-90v-90h90zm135 134.7h-90v-89.999h90zm0-134.7h-90v-90h90zm135 134.7h-90v-89.999h90zm0-134.7h-90v-90h90z"/>
<path fill="#fff" d="m136 16h-30v105.084h30c0-31.674 0-73.316 0-105.084z"/>
<path fill="#fff" d="m375 360.552h30v29.999h-30z"/>
</g></svg>