<svg id="Layer_1" enable-background="new 0 0 512 512" height="512" viewBox="0 0 512 512" width="512" xmlns="http://www.w3.org/2000/svg">
<g>
<path fill="#fff" d="m466 16h-420c-25.364 0-46 20.636-46 46v292c0 25.364 20.636 46 46 46h162v64h-64c-8.836 0-16 7.164-16 16s7.164 16 16 16h80 64 80c8.836 0 16-7.164 16-16s-7.164-16-16-16h-64v-64h162c25.364 0 46-20.636 46-46v-292c0-25.364-20.636-46-46-46zm-194 448h-32v-64h32zm208-110c0 7.72-6.28 14-14 14h-178-64-178c-7.72 0-14-6.28-14-14v-292c0-7.72 6.28-14 14-14h420c7.72 0 14 6.28 14 14z"/>
<path fill="#fff" d="m340.85 195.15c-4.096 0-8.191-1.563-11.316-4.689-19.635-19.643-45.749-30.461-73.534-30.461s-53.899 10.818-73.534 30.461c-6.248 6.25-16.378 6.252-22.627.005-6.25-6.247-6.252-16.378-.005-22.627 25.679-25.691 59.831-39.839 96.166-39.839s70.487 14.148 96.167 39.839c6.247 6.25 6.245 16.38-.005 22.627-3.124 3.122-7.219 4.684-11.312 4.684z"/>
<path fill="#fff" d="m301.26 234.74c-4.095 0-8.189-1.562-11.314-4.687-9.062-9.062-21.118-14.053-33.946-14.053s-24.884 4.991-33.946 14.054c-6.248 6.248-16.379 6.249-22.627 0-6.249-6.248-6.249-16.379 0-22.627 15.106-15.107 35.197-23.427 56.573-23.427s41.467 8.32 56.574 23.427c6.248 6.249 6.248 16.379 0 22.627-3.125 3.124-7.22 4.686-11.314 4.686z"/>
<path fill="#fff" d="m256 304c-13.233 0-24-10.767-24-24s10.767-24 24-24 24 10.767 24 24-10.767 24-24 24z"/></g></svg>