<svg width="0" height="0" class="hidden">
  <symbol fill="none" stroke="currentColor" stroke-linecap="round" stroke-linejoin="round" stroke-width="1.5" xmlns="http://www.w3.org/2000/svg" viewBox="0 0 24 24" id="airplane">
    <path d="M19.112 10.5c-.16 0-.693.005-.844.014l-3.042.08a.086.086 0 0 1-.08-.042L9.074 3.167A.422.422 0 0 0 8.76 3H7.5l3.421 7.547a.11.11 0 0 1-.008.108.11.11 0 0 1-.098.049l-5.704.084a.377.377 0 0 1-.31-.145l-1.734-2.11c-.14-.182-.404-.28-.633-.28H1.55c-.06 0-.052.056-.035.113l.93 3.348c.07.18.07.379 0 .558l-.931 3.337c-.028.092-.025.141.083.141h.84c.381 0 .433-.05.628-.295l1.767-2.143a.384.384 0 0 1 .31-.145l5.657.127a.126.126 0 0 1 .114.175L7.5 21h1.25a.423.423 0 0 0 .312-.166l6.086-7.38c.019-.029.094-.043.126-.043l2.996.08c.154.009.684.014.844.014 2.075 0 3.387-.57 3.387-1.505 0-.934-1.307-1.5-3.388-1.5Z"></path>
  </symbol>
  <symbol fill="none" stroke="currentColor" stroke-linecap="round" stroke-linejoin="round" stroke-width="1.5" xmlns="http://www.w3.org/2000/svg" viewBox="0 0 24 24" id="alarm">
    <path d="M19.504 12.75a7.5 7.5 0 1 0-14.999 0 7.5 7.5 0 0 0 14.999 0Z"></path>
    <path d="M6.663 4.275A2.188 2.188 0 0 0 5.25 3.75l-.131.004C3.922 3.826 3 4.875 3.004 6.14c0 .619.218.908.51 1.276a.213.213 0 0 0 .152.083h.041a.151.151 0 0 0 .12-.061L6.674 4.64a.252.252 0 0 0-.012-.366v0Z"></path>
    <path d="M17.339 4.275a2.187 2.187 0 0 1 1.412-.525l.13.004c1.198.072 2.12 1.121 2.116 2.387 0 .619-.218.908-.51 1.276a.212.212 0 0 1-.151.083h-.042a.152.152 0 0 1-.119-.062l-2.848-2.797a.251.251 0 0 1 .012-.366v0Z"></path>
    <path d="M12.004 7.5v5.25h-3.75"></path>
    <path d="m19.504 20.25-1.875-1.875"></path>
    <path d="m4.504 20.25 1.875-1.875"></path>
  </symbol>
  <symbol fill="none" stroke="currentColor" stroke-linecap="round" stroke-linejoin="round" stroke-width="1.5" xmlns="http://www.w3.org/2000/svg" viewBox="0 0 24 24" id="albums">
    <path d="M19.647 8.25H4.353C3.606 8.25 3 8.856 3 9.603v9.294c0 .747.606 1.353 1.353 1.353h15.294c.747 0 1.353-.606 1.353-1.353V9.603c0-.747-.606-1.353-1.353-1.353Z"></path>
    <path d="M6.75 3.75h10.5"></path>
    <path d="M5.25 6h13.5"></path>
  </symbol>
</svg>